<?xml version="1.0" encoding="UTF-8"?>
<svg width="48px" height="48px" viewBox="0 0 48 48" version="1.1" xmlns="http://www.w3.org/2000/svg" xmlns:xlink="http://www.w3.org/1999/xlink">
    <!-- Generator: Sketch 52.4 (67378) - http://www.bohemiancoding.com/sketch -->
    <title>icon</title>
    <desc>Created with Sketch.</desc>
    <defs>
        <polygon id="path-1" points="14 11 35 11 35 34 14 34"></polygon>
    </defs>
    <g id="Page-1" stroke="none" stroke-width="1" fill="none" fill-rule="evenodd">
        <g id="Cyclone-(Program/Class-Detail)" transform="translate(-904.000000, -1058.000000)">
            <g id="Info" transform="translate(862.000000, 894.000000)">
                <g id="icon" transform="translate(42.000000, 164.000000)">
                    <circle id="Oval" fill="#2AABE1" cx="24" cy="24" r="24"></circle>
                    <mask id="mask-2" fill="white">
                        <use xlink:href="#path-1"></use>
                    </mask>
                    <g id="Clip-2"></g>
                    <path d="M29.9090909,28.891975 L32.8325455,28.891975 L29.9090909,31.8252584 L29.9090909,28.891975 Z M15.2727273,18.675925 L33.7272727,18.675925 L33.7272727,27.6149687 L29.2727273,27.6149687 C29.253,27.614011 29.2329545,27.614011 29.2129091,27.6149687 C28.8851818,27.6459361 28.6350909,27.9230465 28.6363636,28.2534719 L28.6363636,32.7229937 L15.9090909,32.7229937 C15.5454091,32.7229937 15.2727273,32.4493952 15.2727273,32.0844906 L15.2727273,18.675925 Z M15.9090909,14.2064031 L19.0909091,14.2064031 L19.0909091,15.4834093 C19.0858182,15.8361823 19.3667727,16.1260627 19.7183636,16.1308515 C20.0696364,16.1359595 20.3585455,15.8540604 20.3636364,15.5016067 C20.3636364,15.4955409 20.3636364,15.4894751 20.3636364,15.4834093 L20.3636364,14.2064031 L28.6363636,14.2064031 L28.6363636,15.4834093 C28.6312727,15.8361823 28.9122273,16.1260627 29.2638182,16.1308515 C29.6150909,16.1359595 29.904,15.8540604 29.9090909,15.5016067 C29.9090909,15.4955409 29.9090909,15.4894751 29.9090909,15.4834093 L29.9090909,14.2064031 L33.0909091,14.2064031 C33.4545909,14.2064031 33.7272727,14.4800017 33.7272727,14.8449062 L33.7272727,17.3989187 L15.2727273,17.3989187 L15.2727273,14.8449062 C15.2727273,14.4800017 15.5454091,14.2064031 15.9090909,14.2064031 Z M19.6575909,11.0039906 C19.3298636,11.0400661 19.0839091,11.321646 19.0909091,11.6523906 L19.0909091,12.9293968 L15.9090909,12.9293968 C14.8625909,12.9293968 14,13.7948878 14,14.8449062 L14,32.0844906 C14,33.134509 14.8625909,34 15.9090909,34 L29.2727273,34 C29.4410455,33.998723 29.6017273,33.9304032 29.7200909,33.8103646 L34.811,28.7023396 C34.9306364,28.583578 34.9987273,28.4223559 35,28.2534719 L35,14.8449062 C35,13.7948878 34.1374091,12.9293968 33.0909091,12.9293968 L29.9090909,12.9293968 L29.9090909,11.6523906 C29.9167273,11.2999368 29.638,11.0078217 29.2864091,11.0001596 C29.2587273,10.9995211 29.2307273,11.0007981 29.2030455,11.0039906 C28.8753182,11.0400661 28.6293636,11.321646 28.6363636,11.6523906 L28.6363636,12.9293968 L20.3636364,12.9293968 L20.3636364,11.6523906 C20.3712727,11.2999368 20.0925455,11.0078217 19.7409545,11.0001596 C19.7132727,10.9995211 19.6852727,11.0007981 19.6575909,11.0039906 Z" id="Fill-1" stroke="#FFFFFF" fill="#FFFFFF" mask="url(#mask-2)"></path>
                </g>
            </g>
        </g>
    </g>
</svg>