<?xml version="1.0" encoding="UTF-8"?>
<svg width="33px" height="34px" viewBox="0 0 33 34" version="1.1" xmlns="http://www.w3.org/2000/svg" xmlns:xlink="http://www.w3.org/1999/xlink">
    <!-- Generator: Sketch 52.3 (67297) - http://www.bohemiancoding.com/sketch -->
    <title>FB</title>
    <desc>Created with Sketch.</desc>
    <g id="Page-1" stroke="none" stroke-width="1" fill="none" fill-rule="evenodd">
        <g id="TF-HOME" transform="translate(-685.000000, -3965.000000)">
            <g id="Footer" transform="translate(0.000000, 3840.000000)">
                <g id="SM" transform="translate(641.000000, 122.000000)">
                    <g id="FB" transform="translate(44.000000, 3.000000)">
                        <ellipse id="Oval-3-Copy" fill="#00ADEE" cx="16.5" cy="17" rx="16.5" ry="17"></ellipse>
                        <path d="M14.4000408,23.9028922 L17.2001225,23.9028922 C17.2001225,23.9028922 17.2001225,19.7888375 17.2001225,16.4516945 L19.2782498,16.4516945 L19.5335239,13.4712154 L17.3083923,13.4712154 L17.3083923,12.2795205 C17.3083923,11.6988238 17.6719363,11.5637088 17.9272104,11.5637088 C18.1824845,11.5637088 19.4980562,11.5637088 19.4980562,11.5637088 L19.4980562,9.00943818 L17.3349931,9 C14.9339231,9 14.3883738,10.9045261 14.3883738,12.1235421 L14.3883738,13.4707186 L13,13.4707186 L13,16.4511977 L14.4000408,16.4511977 C14.4000408,19.829074 14.4000408,23.9028922 14.4000408,23.9028922 Z" id="Shape" fill="#000000" fill-rule="nonzero"></path>
                    </g>
                </g>
            </g>
        </g>
    </g>
</svg>