<?xml version="1.0" encoding="UTF-8"?>
<svg width="33px" height="34px" viewBox="0 0 33 34" version="1.1" xmlns="http://www.w3.org/2000/svg" xmlns:xlink="http://www.w3.org/1999/xlink">
    <!-- Generator: Sketch 52.5 (67469) - http://www.bohemiancoding.com/sketch -->
    <title>Group</title>
    <desc>Created with Sketch.</desc>
    <g id="Symbols" stroke="none" stroke-width="1" fill="none" fill-rule="evenodd">
        <g id="Footer" transform="translate(-784.000000, -125.000000)">
            <g id="SM">
                <g transform="translate(641.000000, 122.000000)">
                    <g id="Group" transform="translate(143.000000, 3.000000)">
                        <ellipse id="Oval-3-Copy-3" fill="#00ADEE" cx="16.5" cy="17" rx="16.5" ry="17"></ellipse>
                        <path d="M21.8100586,9 C22.4155304,9 22.9318826,9.21362091 23.3591309,9.64086914 C23.7863791,10.0681174 24,10.5844696 24,11.1899414 L24,21.8100586 C24,22.4155304 23.7863791,22.9318826 23.3591309,23.3591309 C22.9318826,23.7863791 22.4155304,24 21.8100586,24 L11.1899414,24 C10.5844696,24 10.0681174,23.7863791 9.64086914,23.3591309 C9.21362091,22.9318826 9,22.4155304 9,21.8100586 L9,11.1899414 C9,10.5844696 9.21362091,10.0681174 9.64086914,9.64086914 C10.0681174,9.21362091 10.5844696,9 11.1899414,9 L21.8100586,9 Z M18.4848633,14.5151367 C17.9379855,13.9633761 17.2763711,13.6875 16.5,13.6875 C15.7236289,13.6875 15.0607938,13.9621555 14.5114746,14.5114746 C13.9621555,15.0607938 13.6875,15.7236289 13.6875,16.5 C13.6875,17.2763711 13.9621555,17.9392062 14.5114746,18.4885254 C15.0607938,19.0378445 15.7236289,19.3125 16.5,19.3125 C17.2763711,19.3125 17.9392062,19.0378445 18.4885254,18.4885254 C19.0378445,17.9392062 19.3125,17.2763711 19.3125,16.5 C19.3125,15.7236289 19.0366239,15.0620145 18.4848633,14.5151367 Z M22.4399414,22.125 L22.4399414,15.5625 L20.7773438,15.5625 C20.8408206,15.8505874 20.8725586,16.1630843 20.8725586,16.5 C20.8725586,17.2910196 20.677248,18.0222134 20.2866211,18.6936035 C19.8959941,19.3649936 19.3649936,19.8959941 18.6936035,20.2866211 C18.0222134,20.677248 17.2910196,20.8725586 16.5,20.8725586 C15.7089804,20.8725586 14.9777866,20.677248 14.3063965,20.2866211 C13.6350064,19.8959941 13.1040059,19.3649936 12.7133789,18.6936035 C12.322752,18.0222134 12.1274414,17.2910196 12.1274414,16.5 C12.1274414,16.1630843 12.1591794,15.8505874 12.2226562,15.5625 L10.5600586,15.5625 L10.5600586,22.125 C10.5600586,22.2128911 10.5905759,22.2873532 10.6516113,22.3483887 C10.7126468,22.4094241 10.7871089,22.4399414 10.875,22.4399414 L22.125,22.4399414 C22.2128911,22.4399414 22.2873532,22.4094241 22.3483887,22.3483887 C22.4094241,22.2873532 22.4399414,22.2128911 22.4399414,22.125 Z M22.4399414,12.75 L22.4399414,10.875 C22.4399414,10.7871089 22.4094241,10.7126468 22.3483887,10.6516113 C22.2873532,10.5905759 22.2128911,10.5600586 22.125,10.5600586 L20.25,10.5600586 C20.1621089,10.5600586 20.0876468,10.5905759 20.0266113,10.6516113 C19.9655759,10.7126468 19.9350586,10.7871089 19.9350586,10.875 L19.9350586,12.75 C19.9350586,12.8378911 19.9655759,12.9123532 20.0266113,12.9733887 C20.0876468,13.0344241 20.1621089,13.0649414 20.25,13.0649414 L22.125,13.0649414 C22.2128911,13.0649414 22.2873532,13.0344241 22.3483887,12.9733887 C22.4094241,12.9123532 22.4399414,12.8378911 22.4399414,12.75 Z" id="instagram" fill="#000000"></path>
                    </g>
                </g>
            </g>
        </g>
    </g>
</svg>