<?xml version="1.0" encoding="UTF-8"?>
<svg width="33px" height="34px" viewBox="0 0 33 34" version="1.1" xmlns="http://www.w3.org/2000/svg" xmlns:xlink="http://www.w3.org/1999/xlink">
    <!-- Generator: Sketch 52.3 (67297) - http://www.bohemiancoding.com/sketch -->
    <title>Li</title>
    <desc>Created with Sketch.</desc>
    <g id="Page-1" stroke="none" stroke-width="1" fill="none" fill-rule="evenodd">
        <g id="TF-HOME" transform="translate(-731.000000, -3965.000000)">
            <g id="Footer" transform="translate(0.000000, 3840.000000)">
                <g id="SM" transform="translate(641.000000, 122.000000)">
                    <g id="Li" transform="translate(89.000000, 0.000000)">
                        <g id="LI" transform="translate(0.483766, 2.730205)">
                            <ellipse id="Oval-3-Copy-2" fill="#00ADEE" cx="17.0162338" cy="17.2697947" rx="16.5" ry="17"></ellipse>
                            <polygon id="Rectangle-path" fill="#000000" fill-rule="nonzero" points="11.007588 13.1531667 13.9584677 13.1531667 13.9584677 21.4305293 11.007588 21.4305293"></polygon>
                            <ellipse id="Oval" fill="#000000" fill-rule="nonzero" cx="12.4830279" cy="10.4630238" rx="1.47543988" ry="1.44853845"></ellipse>
                            <path d="M23.6542155,16.8817047 C23.6542155,14.6480584 23.1635264,13.1531667 20.5115286,13.1531667 C19.2371701,13.1531667 18.381415,13.6179406 18.0315249,14.2701968 L17.9952713,14.2701968 L17.9952713,13.1531667 L15.6446848,13.1531667 L15.6446848,21.4305293 L18.1015029,21.4305293 L18.1015029,17.3278545 C18.1015029,16.2460032 18.3097507,15.198503 19.6730572,15.198503 C21.016129,15.198503 21.1244685,16.4355548 21.1244685,17.3977982 L21.1244685,21.4309431 L23.653794,21.4309431 L23.653794,16.8817047 L23.6542155,16.8817047 Z" id="Shape" fill="#000000" fill-rule="nonzero"></path>
                        </g>
                    </g>
                </g>
            </g>
        </g>
    </g>
</svg>