<?xml version="1.0" encoding="UTF-8"?>
<svg width="33px" height="34px" viewBox="0 0 33 34" version="1.1" xmlns="http://www.w3.org/2000/svg" xmlns:xlink="http://www.w3.org/1999/xlink">
    <!-- Generator: Sketch 52.3 (67297) - http://www.bohemiancoding.com/sketch -->
    <title>Tw</title>
    <desc>Created with Sketch.</desc>
    <g id="Page-1" stroke="none" stroke-width="1" fill="none" fill-rule="evenodd">
        <g id="TF-HOME" transform="translate(-641.000000, -3965.000000)">
            <g id="Footer" transform="translate(0.000000, 3840.000000)">
                <g id="SM" transform="translate(641.000000, 122.000000)">
                    <g id="Tw" transform="translate(0.000000, 3.000000)">
                        <ellipse id="Oval-3" fill="#00ADEE" cx="16.5" cy="17" rx="16.5" ry="17"></ellipse>
                        <path d="M23.613172,11.2394266 C23.0583608,11.6159007 22.442889,11.8894537 21.7886878,12.0367932 C21.2656068,11.3986833 20.5190148,11 19.6926307,11 C18.107056,11 16.8210512,12.4696029 16.8210512,14.2820951 C16.8210512,14.5393975 16.8467153,14.7891162 16.8947772,15.0296262 C14.5080159,14.8925789 12.3918941,13.5860244 10.9752358,11.6007334 C10.7283938,12.0850035 10.5860747,12.648902 10.5860747,13.2507188 C10.5860747,14.3888079 11.0942239,15.3936414 11.8641469,15.9819159 C11.393794,15.9645819 10.9505049,15.8172424 10.5632103,15.5718572 C10.5632103,15.5853994 10.5632103,15.5994833 10.5632103,15.6130255 C10.5632103,17.2028835 11.553378,18.5294804 12.8673799,18.831743 C12.6261374,18.9064961 12.3727627,18.9465811 12.1100557,18.9465811 C11.9252741,18.9465811 11.7456254,18.9259969 11.5697097,18.887537 C11.9360064,20.1908413 12.996167,21.1404225 14.2527747,21.1669653 C13.2696064,22.0472103 12.0316635,22.5721072 10.6854648,22.5721072 C10.453088,22.5721072 10.2253775,22.5563982 10,22.5260636 C11.2720061,23.4572274 12.7819885,24 14.403493,24 C19.6865647,24 22.5749425,18.9996667 22.5749425,14.6623609 C22.5749425,14.5204384 22.573076,14.3779741 22.5674766,14.2376766 C23.1278872,13.775074 23.6155051,13.1970915 24,12.5383974 C23.4853181,12.8000333 22.9319068,12.9755406 22.3504983,13.055169 C22.9435723,12.6494437 23.3980602,12.0064586 23.613172,11.2394266 Z" id="Shape" fill="#000000" fill-rule="nonzero"></path>
                    </g>
                </g>
            </g>
        </g>
    </g>
</svg>