<?xml version="1.0" encoding="UTF-8"?>
<svg width="111px" height="111px" viewBox="0 0 111 111" version="1.1" xmlns="http://www.w3.org/2000/svg" xmlns:xlink="http://www.w3.org/1999/xlink">
    <!-- Generator: Sketch 52.5 (67469) - http://www.bohemiancoding.com/sketch -->
    <title>blockquote_logo</title>
    <desc>Created with Sketch.</desc>
    <g id="Page-1" stroke="none" stroke-width="1" fill="none" fill-rule="evenodd">
        <g id="blockquote_logo">
            <circle id="Oval-2" fill="#00ADEE" cx="55.5" cy="55.5" r="55.5"></circle>
            <path d="M61.8721895,30 C54.9468117,30 48.6886155,34.4799274 46.2908817,41.1582924 L45.5555556,43.2052821 L73.6358234,43.2052821 L73.683366,43.2052821 C80.6071591,43.2052821 86.86694,38.7253547 89.2646738,32.0469897 L90,30 L61.8721895,30 Z" id="Fill-1" fill="#FFFFFF"></path>
            <path d="M44.7249939,48.7256997 L31.6722169,83.9221922 L33.7879404,83.9221922 C40.7362048,83.9221922 47.0104194,79.6118768 49.4005208,73.1939496 L53.8111858,61.2793959 L60.6182962,61.2793959 C67.3984447,61.2793959 73.5394353,57.0205237 75.8994028,50.6820996 L76.6273766,48.7256997 L44.7249939,48.7256997 Z" id="Fill-3" fill="#FFFFFF"></path>
            <path d="M38.3333333,48.707483 L36.1863154,48.707483 C29.308526,48.707483 23.0985915,53.1815384 20.7347997,59.839222 L20,61.9127651 L33.6137194,61.911122 L38.3333333,48.707483 Z" id="Fill-6" fill="#FFFFFF"></path>
        </g>
    </g>
</svg>
