<?xml version="1.0" encoding="UTF-8"?>
<svg width="8px" height="16px" viewBox="0 0 8 16" version="1.1" xmlns="http://www.w3.org/2000/svg" xmlns:xlink="http://www.w3.org/1999/xlink">
    <!-- Generator: Sketch 52.3 (67297) - http://www.bohemiancoding.com/sketch -->
    <title>Down Arrow</title>
    <desc>Created with Sketch.</desc>
    <defs>
        <polygon id="path-1" points="0.000170676481 0.0339808378 11.0907284 0.0339808378 11.0907284 7.36234495 0.000170676481 7.36234495"></polygon>
        <polygon id="path-3" points="0.0863054071 0.0339808378 11.1802767 0.0339808378 11.1802767 7.36234495 0.0863054071 7.36234495"></polygon>
    </defs>
    <g id="Page-1" stroke="none" stroke-width="1" fill="none" fill-rule="evenodd">
        <g id="News-Copy" transform="translate(-215.000000, -1286.000000)">
            <g id="Group-5" transform="translate(93.000000, 624.000000)">
                <g id="Group" transform="translate(2.000000, 661.000000)">
                    <g id="Down-Arrow" transform="translate(124.000000, 9.000000) rotate(-90.000000) translate(-124.000000, -9.000000) translate(116.000000, 5.000000)">
                        <g id="Group-3">
                            <mask id="mask-2" fill="white">
                                <use xlink:href="#path-1"></use>
                            </mask>
                            <g id="Clip-2"></g>
                            <path d="M8.10787243,2.46570623 L6.43751861,1.13479008 C4.77342292,-0.190462596 2.41524288,-0.332615767 0.569661201,0.780823018 L0.000170676481,1.12516217 L7.82910085,7.36234495 L11.0907284,4.8268081" id="Fill-1" fill="#2AABE1" mask="url(#mask-2)"></path>
                        </g>
                        <g id="Group-6" transform="translate(4.350577, 0.000000)">
                            <mask id="mask-4" fill="white">
                                <use xlink:href="#path-3"></use>
                            </mask>
                            <g id="Clip-5"></g>
                            <path d="M3.0725749,2.46570623 L4.74292872,1.13479008 C6.40702441,-0.190462596 8.76520445,-0.332615767 10.6107861,0.780823018 L11.1802767,1.12516217 L3.35134648,7.36234495 L0.0863054071,4.83077254" id="Fill-4" fill="#2AABE1" mask="url(#mask-4)"></path>
                        </g>
                    </g>
                </g>
            </g>
        </g>
    </g>
</svg>