<?xml version="1.0" standalone="no"?>
<!DOCTYPE svg PUBLIC "-//W3C//DTD SVG 20010904//EN"
 "http://www.w3.org/TR/2001/REC-SVG-20010904/DTD/svg10.dtd">
<svg version="1.0" xmlns="http://www.w3.org/2000/svg"
 width="700.000000pt" height="700.000000pt" viewBox="0 0 700.000000 700.000000"
 preserveAspectRatio="xMidYMid meet">
<metadata>
Created by potrace 1.11, written by Peter Selinger 2001-2013
</metadata>
<g transform="translate(0.000000,700.000000) scale(0.100000,-0.100000)"
fill="#000000" stroke="none">
<path d="M3215 6989 c-1004 -86 -1899 -579 -2513 -1387 -373 -489 -613 -1100
-684 -1737 -17 -154 -17 -585 0 -730 44 -370 129 -694 269 -1020 276 -645 764
-1212 1365 -1586 447 -278 924 -443 1483 -511 130 -16 600 -16 730 0 451 55
818 163 1195 351 729 364 1312 973 1639 1714 144 325 238 675 283 1052 16 139
16 595 0 730 -108 889 -477 1619 -1122 2217 -507 471 -1171 785 -1865 882
-249 35 -546 45 -780 25z m2451 -1906 c-18 -71 -98 -248 -148 -324 -125 -192
-290 -327 -503 -412 -172 -68 -152 -67 -1196 -67 -574 0 -939 4 -939 9 0 18
59 170 91 233 52 104 116 193 196 273 178 178 362 268 633 309 14 2 441 4 949
5 l923 1 -6 -27z m-3272 -1220 c-13 -38 -80 -223 -148 -413 l-123 -345 -431
-3 -431 -2 30 82 c111 310 297 524 563 649 144 67 277 96 458 98 l107 1 -25
-67z m2430 45 c-3 -13 -21 -60 -40 -106 -130 -325 -371 -539 -719 -638 -49
-14 -116 -18 -363 -22 -270 -3 -303 -5 -311 -20 -5 -9 -73 -190 -151 -402
-155 -420 -173 -459 -251 -570 -159 -225 -420 -385 -699 -430 -96 -15 -293
-13 -287 3 2 6 185 498 405 1092 220 594 404 1088 407 1098 7 16 64 17 1012
17 l1004 0 -7 -22z"/>
</g>
</svg>
