<?xml version="1.0" standalone="no"?>
<!DOCTYPE svg PUBLIC "-//W3C//DTD SVG 20010904//EN"
 "http://www.w3.org/TR/2001/REC-SVG-20010904/DTD/svg10.dtd">
<svg version="1.0" xmlns="http://www.w3.org/2000/svg"
 width="700.000000pt" height="700.000000pt" viewBox="0 0 700.000000 700.000000"
 preserveAspectRatio="xMidYMid meet">
<metadata>
Created by potrace 1.11, written by Peter Selinger 2001-2013
</metadata>
<g transform="translate(0.000000,700.000000) scale(0.100000,-0.100000)"
fill="#000000" stroke="none">
<path d="M3285 6994 c-305 -30 -421 -48 -631 -99 -476 -117 -944 -348 -1339
-661 -141 -113 -436 -408 -549 -549 -409 -516 -656 -1108 -742 -1780 -25 -196
-25 -614 0 -810 86 -672 333 -1264 742 -1780 113 -141 408 -436 549 -549 516
-409 1108 -656 1780 -742 196 -25 614 -25 810 0 672 86 1264 333 1780 742 141
113 436 408 549 549 409 516 656 1108 742 1780 25 196 25 614 0 810 -86 672
-333 1264 -742 1780 -113 141 -408 436 -549 549 -515 408 -1109 657 -1775 741
-117 15 -536 28 -625 19z m2381 -1911 c-18 -71 -98 -248 -148 -324 -125 -192
-290 -327 -503 -412 -172 -68 -152 -67 -1196 -67 -561 0 -939 4 -939 9 0 16
67 186 96 242 152 303 464 525 794 568 36 5 478 9 984 10 l918 1 -6 -27z
m-3272 -1220 c-13 -38 -80 -223 -148 -413 l-123 -345 -430 -3 -431 -2 39 106
c106 293 297 507 562 629 138 64 272 92 449 94 l107 1 -25 -67z m2436 61 c0
-22 -88 -223 -124 -284 -148 -250 -405 -430 -694 -486 -52 -10 -153 -14 -343
-14 -245 0 -269 -1 -278 -17 -5 -10 -70 -183 -145 -385 -75 -202 -149 -397
-165 -433 -67 -147 -214 -319 -349 -408 -197 -130 -384 -187 -619 -187 -106 0
-115 1 -108 18 3 9 186 501 405 1092 219 591 402 1083 405 1093 7 16 64 17
1011 17 552 0 1004 -3 1004 -6z"/>
</g>
</svg>
